<svg id="visual" viewBox="0 0 900 600" width="900" height="600" xmlns="http://www.w3.org/2000/svg" xmlns:xlink="http://www.w3.org/1999/xlink" version="1.1"><path d="M0 61L82 43L164 43L245 67L327 31L409 61L491 61L573 43L655 67L736 31L818 73L900 67L900 0L818 0L736 0L655 0L573 0L491 0L409 0L327 0L245 0L164 0L82 0L0 0Z" fill="#a1b2ff"></path><path d="M0 151L82 85L164 103L245 169L327 79L409 115L491 109L573 145L655 115L736 67L818 115L900 109L900 65L818 71L736 29L655 65L573 41L491 59L409 59L327 29L245 65L164 41L82 41L0 59Z" fill="#8d9efa"></path><path d="M0 229L82 145L164 169L245 193L327 133L409 157L491 157L573 205L655 181L736 127L818 181L900 151L900 107L818 113L736 65L655 113L573 143L491 107L409 113L327 77L245 167L164 101L82 83L0 149Z" fill="#7a89f4"></path><path d="M0 415L82 313L164 307L245 295L327 307L409 253L491 331L573 301L655 325L736 229L818 295L900 223L900 149L818 179L736 125L655 179L573 203L491 155L409 155L327 131L245 191L164 167L82 143L0 227Z" fill="#6974ed"></path><path d="M0 469L82 415L164 379L245 337L327 373L409 355L491 409L573 391L655 439L736 361L818 427L900 367L900 221L818 293L736 227L655 323L573 299L491 329L409 251L327 305L245 293L164 305L82 311L0 413Z" fill="#595fe5"></path><path d="M0 571L82 541L164 565L245 559L327 541L409 535L491 547L573 541L655 535L736 559L818 565L900 565L900 365L818 425L736 359L655 437L573 389L491 407L409 353L327 371L245 335L164 377L82 413L0 467Z" fill="#4a49db"></path><path d="M0 601L82 601L164 601L245 601L327 601L409 601L491 601L573 601L655 601L736 601L818 601L900 601L900 563L818 563L736 557L655 533L573 539L491 545L409 533L327 539L245 557L164 563L82 539L0 569Z" fill="#3c31d1"></path></svg>